<svg width="334" height="334" viewBox="0 0 334 334" fill="none" xmlns="http://www.w3.org/2000/svg">
<g filter="url(#filter0_d_2975_650)">
<path fill-rule="evenodd" clip-rule="evenodd" d="M4 60C4 31.7157 4 17.5736 12.7868 8.7868C21.5736 0 35.7157 0 64 0H270C298.284 0 312.426 0 321.213 8.7868C330 17.5736 330 31.7157 330 60V266C330 294.284 330 308.426 321.213 317.213C312.426 326 298.284 326 270 326H64C35.7157 326 21.5736 326 12.7868 317.213C4 308.426 4 294.284 4 266V60ZM62.9075 259.449H55.1675C55.3835 257.866 55.4555 256.245 55.4555 254.121V234.645C55.4555 232.701 55.3835 231.081 55.1675 229.389C56.8595 229.461 58.1555 229.497 60.4595 229.497H68.3435C75.4715 229.497 79.3955 232.917 79.3955 239.182C79.3955 245.589 75.2915 249.406 68.3075 249.406H62.6195V254.013C62.6195 256.137 62.7275 257.901 62.9075 259.449ZM62.6195 243.285H67.9835C70.5035 243.285 71.9795 241.882 71.9795 239.397C71.9795 236.913 70.5755 235.617 67.9835 235.617H62.6195V243.285ZM96.7365 245.229V244.401C96.7365 242.673 95.6926 241.882 93.3166 241.882C91.0126 241.882 89.7886 242.637 89.2486 244.401L82.3726 243.285C83.0925 241.161 83.8845 240.009 85.3965 238.929C87.3405 237.561 90.0045 236.878 93.4966 236.878C96.1605 236.878 98.7525 237.382 100.157 238.137C102.461 239.397 103.469 241.378 103.469 244.617V254.337C103.469 256.534 103.541 257.829 103.721 259.449H96.7365V257.793C94.7206 259.341 92.7045 259.953 89.7525 259.953C87.0165 259.953 84.9645 259.305 83.5246 257.974C82.2285 256.785 81.5445 255.057 81.5445 253.077C81.5445 250.809 82.4445 249.009 84.1725 247.822C86.0085 246.525 88.4205 245.77 91.6605 245.481C93.0646 245.337 94.1445 245.301 96.7365 245.229ZM96.7365 250.845V249.837C93.5325 249.91 91.9846 250.089 90.5085 250.557C89.2125 250.99 88.4205 251.889 88.4205 252.934C88.4205 254.229 89.5005 254.985 91.3726 254.985C92.8485 254.985 94.4686 254.445 95.4406 253.617C96.2685 252.897 96.7365 251.925 96.7365 250.845ZM125.471 237.489L123.743 243.969C122.087 243.465 121.187 243.285 120.071 243.285C118.235 243.285 116.831 243.934 115.787 245.229C115.103 246.093 114.851 246.85 114.707 248.434V254.049C114.707 256.353 114.779 257.721 114.995 259.449H107.543C107.759 257.65 107.831 256.353 107.831 254.013V242.925C107.831 240.298 107.759 239.037 107.543 237.489H114.707V240.333C116.471 238.029 118.631 237.057 121.907 237.057C123.059 237.057 123.779 237.13 125.471 237.489ZM142.053 245.229V244.401C142.053 242.673 141.009 241.882 138.633 241.882C136.329 241.882 135.105 242.637 134.565 244.401L127.689 243.285C128.409 241.161 129.201 240.009 130.713 238.929C132.657 237.561 135.321 236.878 138.813 236.878C141.477 236.878 144.069 237.382 145.473 238.137C147.777 239.397 148.785 241.378 148.785 244.617V254.337C148.785 256.534 148.857 257.829 149.037 259.449H142.053V257.793C140.037 259.341 138.021 259.953 135.069 259.953C132.333 259.953 130.281 259.305 128.841 257.974C127.545 256.785 126.861 255.057 126.861 253.077C126.861 250.809 127.761 249.009 129.489 247.822C131.325 246.525 133.737 245.77 136.977 245.481C138.381 245.337 139.461 245.301 142.053 245.229ZM142.053 250.845V249.837C138.849 249.91 137.301 250.089 135.825 250.557C134.529 250.99 133.737 251.889 133.737 252.934C133.737 254.229 134.817 254.985 136.689 254.985C138.165 254.985 139.785 254.445 140.757 253.617C141.585 252.897 142.053 251.925 142.053 250.845ZM164.847 229.497H172.371C172.155 231.009 172.083 232.485 172.083 234.934V254.013C172.083 256.173 172.155 257.542 172.371 259.449H164.847C165.063 257.829 165.135 256.605 165.135 254.013V234.934C165.135 232.378 165.063 230.865 164.847 229.497ZM176.168 229.497H183.692C183.476 231.009 183.404 232.485 183.404 234.934V254.013C183.404 256.173 183.476 257.542 183.692 259.449H176.168C176.384 257.829 176.456 256.605 176.456 254.013V234.934C176.456 232.378 176.384 230.865 176.168 229.497ZM209.376 250.485H193.176C193.536 253.401 195.228 254.949 198.072 254.949C199.512 254.949 200.772 254.481 201.708 253.617C202.248 253.113 202.5 252.717 202.788 251.781L209.052 253.546C208.224 255.417 207.684 256.245 206.676 257.254C204.624 259.27 201.744 260.314 198.18 260.314C194.652 260.314 191.88 259.305 189.828 257.254C187.704 255.093 186.552 252.033 186.552 248.469C186.552 241.341 191.124 236.625 198 236.625C203.616 236.625 207.54 239.686 208.8 245.049C209.088 246.201 209.232 247.714 209.34 249.766C209.34 249.91 209.34 250.125 209.376 250.485ZM193.284 245.518H202.536C202.032 243.214 200.484 241.99 198 241.99C195.444 241.99 193.896 243.141 193.284 245.518ZM210.617 237.489H218.609C218.681 238.354 218.861 239.109 219.293 240.585L222.641 251.781C222.659 251.818 222.677 251.872 222.7 251.939C222.722 252.007 222.749 252.087 222.785 252.177C222.812 252.268 222.833 252.338 222.851 252.402C222.866 252.457 222.88 252.507 222.895 252.563C222.933 252.698 222.978 252.86 223.073 253.186C223.161 252.922 223.201 252.753 223.233 252.622C223.24 252.592 223.247 252.564 223.253 252.537C223.289 252.465 223.325 252.357 223.361 252.177C223.393 252.098 223.418 252.026 223.439 251.96C223.451 251.922 223.461 251.887 223.472 251.853C223.478 251.833 223.484 251.813 223.49 251.794C223.495 251.777 223.5 251.761 223.505 251.745L226.853 240.585C227.249 239.253 227.465 238.281 227.537 237.489H235.529C234.809 239.109 234.521 239.793 234.053 240.981L228.005 256.426C227.393 257.974 227.213 258.549 227.033 259.449H219.149C218.969 258.549 218.789 257.974 218.177 256.426L212.129 240.981C212.037 240.767 211.893 240.436 211.697 239.984C211.433 239.374 211.072 238.545 210.617 237.489ZM252.092 245.229V244.401C252.092 242.673 251.048 241.882 248.672 241.882C246.368 241.882 245.144 242.637 244.604 244.401L237.728 243.285C238.448 241.161 239.24 240.009 240.752 238.929C242.696 237.561 245.36 236.878 248.852 236.878C251.516 236.878 254.108 237.382 255.512 238.137C257.816 239.397 258.824 241.378 258.824 244.617V254.337C258.824 256.534 258.896 257.829 259.076 259.449H252.092V257.793C250.076 259.341 248.06 259.953 245.108 259.953C242.372 259.953 240.32 259.305 238.88 257.974C237.584 256.785 236.9 255.057 236.9 253.077C236.9 250.809 237.8 249.009 239.528 247.822C241.364 246.525 243.776 245.77 247.016 245.481C248.42 245.337 249.5 245.301 252.092 245.229ZM252.092 250.845V249.837C248.888 249.91 247.34 250.089 245.864 250.557C244.568 250.99 243.776 251.889 243.776 252.934C243.776 254.229 244.856 254.985 246.728 254.985C248.204 254.985 249.824 254.445 250.796 253.617C251.624 252.897 252.092 251.925 252.092 250.845ZM280.826 237.489L279.098 243.969C277.442 243.465 276.542 243.285 275.426 243.285C273.59 243.285 272.186 243.934 271.142 245.229C270.458 246.093 270.206 246.85 270.062 248.434V254.049C270.062 256.353 270.134 257.721 270.35 259.449H262.898C263.114 257.65 263.186 256.353 263.186 254.013V242.925C263.186 240.298 263.114 239.037 262.898 237.489H270.062V240.333C271.826 238.029 273.986 237.057 277.262 237.057C278.414 237.057 279.134 237.13 280.826 237.489ZM231 127.667V124.111C231 121.166 228.612 118.778 225.667 118.778H210.702L186.973 86.1507C184.663 82.9744 180.216 82.2722 177.04 84.5822C173.864 86.8922 173.161 91.3398 175.471 94.5158L193.116 118.778H140.884L158.529 94.516C160.839 91.3398 160.137 86.8924 156.96 84.5824C153.784 82.2724 149.337 82.9749 147.027 86.1509L123.298 118.778H108.333C105.388 118.778 103 121.166 103 124.111V127.667C103 130.612 105.388 133 108.333 133H110.111L115.914 173.62C116.665 178.874 121.165 182.778 126.473 182.778H207.527C212.835 182.778 217.335 178.874 218.086 173.62L223.889 133H225.667C228.612 133 231 130.612 231 127.667ZM172.333 138.333V163.222C172.333 166.168 169.946 168.556 167 168.556C164.054 168.556 161.667 166.168 161.667 163.222V138.333C161.667 135.388 164.054 133 167 133C169.946 133 172.333 135.388 172.333 138.333ZM197.222 138.333V163.222C197.222 166.168 194.834 168.556 191.889 168.556C188.943 168.556 186.556 166.168 186.556 163.222V138.333C186.556 135.388 188.943 133 191.889 133C194.834 133 197.222 135.388 197.222 138.333ZM147.444 138.333V163.222C147.444 166.168 145.057 168.556 142.111 168.556C139.166 168.556 136.778 166.168 136.778 163.222V138.333C136.778 135.388 139.166 133 142.111 133C145.057 133 147.444 135.388 147.444 138.333Z" fill="white"/>
</g>
<defs>
<filter id="filter0_d_2975_650" x="0" y="0" width="334" height="334" filterUnits="userSpaceOnUse" color-interpolation-filters="sRGB">
<feFlood flood-opacity="0" result="BackgroundImageFix"/>
<feColorMatrix in="SourceAlpha" type="matrix" values="0 0 0 0 0 0 0 0 0 0 0 0 0 0 0 0 0 0 127 0" result="hardAlpha"/>
<feOffset dy="4"/>
<feGaussianBlur stdDeviation="2"/>
<feComposite in2="hardAlpha" operator="out"/>
<feColorMatrix type="matrix" values="0 0 0 0 0 0 0 0 0 0 0 0 0 0 0 0 0 0 0.25 0"/>
<feBlend mode="normal" in2="BackgroundImageFix" result="effect1_dropShadow_2975_650"/>
<feBlend mode="normal" in="SourceGraphic" in2="effect1_dropShadow_2975_650" result="shape"/>
</filter>
</defs>
</svg>
