<svg width="334" height="334" viewBox="0 0 334 334" fill="none" xmlns="http://www.w3.org/2000/svg">
<g filter="url(#filter0_d_2975_634)">
<path fill-rule="evenodd" clip-rule="evenodd" d="M4 60C4 31.7157 4 17.5736 12.7868 8.7868C21.5736 0 35.7157 0 64 0H270C298.284 0 312.426 0 321.213 8.7868C330 17.5736 330 31.7157 330 60V266C330 294.284 330 308.426 321.213 317.213C312.426 326 298.284 326 270 326H64C35.7157 326 21.5736 326 12.7868 317.213C4 308.426 4 294.284 4 266V60ZM78.8685 259.449H71.1285C71.3445 257.866 71.4165 256.245 71.4165 254.121V234.645C71.4165 232.701 71.3445 231.081 71.1285 229.389C72.8205 229.461 74.1165 229.497 76.4205 229.497H84.3045C91.4325 229.497 95.3565 232.917 95.3565 239.182C95.3565 245.589 91.2525 249.406 84.2685 249.406H78.5805V254.013C78.5805 256.137 78.6885 257.901 78.8685 259.449ZM78.5805 243.285H83.9445C86.4645 243.285 87.9405 241.882 87.9405 239.397C87.9405 236.913 86.5365 235.617 83.9445 235.617H78.5805V243.285ZM98.3695 229.497H105.678V234.897H98.3695V229.497ZM98.2615 237.489H105.786C105.57 238.965 105.498 240.406 105.498 242.925V254.013C105.498 255.957 105.606 257.901 105.786 259.449H98.2615C98.4775 257.685 98.5495 256.318 98.5495 254.013V242.925C98.5495 240.585 98.4775 239.109 98.2615 237.489ZM126.429 259.449V258.297C126.429 258.081 126.429 257.829 126.465 257.505C124.053 259.449 122.217 260.098 119.193 260.098C112.641 260.098 108.681 255.705 108.681 248.434C108.681 244.689 109.761 241.701 111.777 239.649C113.613 237.813 116.133 236.841 119.085 236.841C122.001 236.841 124.089 237.597 126.465 239.505C126.429 238.965 126.429 238.641 126.429 238.137V235.149C126.429 232.63 126.357 231.081 126.141 229.497H133.521C133.305 231.009 133.233 232.737 133.233 235.149V253.798C133.233 256.21 133.305 257.685 133.521 259.449H126.429ZM120.777 242.349C117.645 242.349 115.665 244.689 115.665 248.469C115.665 250.521 116.241 252.177 117.321 253.221C118.185 254.085 119.481 254.589 120.813 254.589C124.017 254.589 126.357 251.925 126.357 248.361C126.357 244.869 124.053 242.349 120.777 242.349ZM159.173 250.485H142.973C143.333 253.401 145.025 254.949 147.869 254.949C149.309 254.949 150.569 254.481 151.505 253.617C152.045 253.113 152.297 252.717 152.585 251.781L158.849 253.546C158.021 255.417 157.481 256.245 156.473 257.254C154.421 259.27 151.541 260.314 147.977 260.314C144.449 260.314 141.677 259.305 139.625 257.254C137.501 255.093 136.349 252.033 136.349 248.469C136.349 241.341 140.921 236.625 147.797 236.625C153.413 236.625 157.337 239.686 158.597 245.049C158.885 246.201 159.029 247.714 159.137 249.766C159.137 249.91 159.137 250.125 159.173 250.485ZM143.081 245.518H152.333C151.829 243.214 150.281 241.99 147.797 241.99C145.241 241.99 143.693 243.141 143.081 245.518ZM188.494 245.229V244.401C188.494 242.673 187.45 241.882 185.074 241.882C182.77 241.882 181.546 242.637 181.006 244.401L174.13 243.285C174.85 241.161 175.642 240.009 177.154 238.929C179.098 237.561 181.762 236.878 185.254 236.878C187.918 236.878 190.51 237.382 191.914 238.137C194.218 239.397 195.226 241.378 195.226 244.617V254.337C195.226 256.534 195.298 257.829 195.478 259.449H188.494V257.793C186.478 259.341 184.462 259.953 181.51 259.953C178.774 259.953 176.722 259.305 175.282 257.974C173.986 256.785 173.302 255.057 173.302 253.077C173.302 250.809 174.202 249.009 175.93 247.822C177.766 246.525 180.178 245.77 183.418 245.481C184.822 245.337 185.902 245.301 188.494 245.229ZM188.494 250.845V249.837C185.29 249.91 183.742 250.089 182.266 250.557C180.97 250.99 180.178 251.889 180.178 252.934C180.178 254.229 181.258 254.985 183.13 254.985C184.606 254.985 186.226 254.445 187.198 253.617C188.026 252.897 188.494 251.925 188.494 250.845ZM223.349 265.965H215.969C216.149 264.202 216.221 262.762 216.221 260.277V258.189C216.221 257.758 216.221 257.721 216.293 256.93C214.241 258.693 211.865 259.557 208.949 259.557C205.925 259.557 203.261 258.549 201.425 256.714C199.445 254.733 198.401 251.781 198.401 248.217C198.401 243.645 200.021 240.333 203.153 238.354C204.845 237.309 206.717 236.841 209.093 236.841C212.009 236.841 214.061 237.561 216.293 239.326C216.293 239.295 216.293 239.27 216.292 239.249C216.292 239.231 216.291 239.215 216.29 239.199C216.287 239.147 216.278 239.096 216.257 238.965V238.569V237.489H223.349C223.133 239.037 223.061 240.513 223.061 243.141V260.277C223.061 262.941 223.133 264.525 223.349 265.965ZM205.457 248.289C205.457 251.817 207.473 254.121 210.569 254.121C213.773 254.121 216.185 251.565 216.185 248.182C216.185 244.833 213.773 242.277 210.641 242.277C209.417 242.277 208.121 242.781 207.221 243.537C206.105 244.581 205.457 246.309 205.457 248.289ZM242.336 237.489H249.788C249.572 239.182 249.5 240.693 249.5 242.889V254.013C249.5 256.497 249.572 257.974 249.788 259.413H242.624V257.866C242.624 257.685 242.624 257.146 242.66 256.893C240.284 259.125 238.232 259.99 235.172 259.99C232.76 259.99 230.816 259.305 229.448 257.974C228.008 256.534 227.396 254.77 227.396 251.925V242.889C227.396 240.801 227.288 239.001 227.108 237.489H234.596C234.38 239.217 234.308 240.729 234.308 242.889V250.27C234.308 251.745 234.452 252.393 234.884 252.969C235.388 253.617 236.18 253.977 237.224 253.977C239.204 253.977 241.22 252.574 242.624 250.27V242.889C242.624 240.873 242.552 239.361 242.336 237.489ZM254.626 237.489H262.15C261.934 238.965 261.862 240.406 261.862 242.925V254.013C261.862 255.957 261.97 257.901 262.15 259.449H254.626C254.842 257.685 254.914 256.318 254.914 254.013V242.925C254.914 240.585 254.842 239.109 254.626 237.489ZM265.102 230.145L256.57 235.653L254.338 233.35L260.854 225.717L265.102 230.145ZM167.523 87.9529L167.521 87.9448C166.82 83.4955 157.571 83.4516 157.001 88.1859V119.134C156.738 119.879 153.691 119.835 153.494 119.134C153.187 113.589 151.784 88.6462 151.741 88.0544C151.039 83.4955 141.965 83.4955 141.242 88.0544C141.23 88.3615 140.811 95.7528 140.379 103.372C140.009 109.891 139.63 116.577 139.489 119.134C139.291 119.835 136.267 119.879 135.982 119.134V88.1859C135.412 83.4297 126.184 83.4955 125.483 87.9448L125.48 87.9613C125.275 89.168 121.954 108.672 121.954 116.175C121.954 127.616 128.026 135.813 137.056 139.101L134.228 191.287C134.075 194.312 136.486 196.833 139.489 196.833H153.516C156.541 196.833 158.93 194.29 158.776 191.287L155.949 139.101C164.957 135.813 171.05 127.638 171.05 116.175C171.05 108.676 167.714 89.0735 167.523 87.9529ZM190.36 191.134L193.647 150.564C159.346 123.737 189.79 84.6133 207.872 84.6133C210.787 84.6133 213.132 86.9804 213.132 89.8736V191.572C213.132 194.487 210.787 196.833 207.872 196.833H195.598C192.53 196.833 190.097 194.202 190.36 191.134Z" fill="white"/>
</g>
<defs>
<filter id="filter0_d_2975_634" x="0" y="0" width="334" height="334" filterUnits="userSpaceOnUse" color-interpolation-filters="sRGB">
<feFlood flood-opacity="0" result="BackgroundImageFix"/>
<feColorMatrix in="SourceAlpha" type="matrix" values="0 0 0 0 0 0 0 0 0 0 0 0 0 0 0 0 0 0 127 0" result="hardAlpha"/>
<feOffset dy="4"/>
<feGaussianBlur stdDeviation="2"/>
<feComposite in2="hardAlpha" operator="out"/>
<feColorMatrix type="matrix" values="0 0 0 0 0 0 0 0 0 0 0 0 0 0 0 0 0 0 0.25 0"/>
<feBlend mode="normal" in2="BackgroundImageFix" result="effect1_dropShadow_2975_634"/>
<feBlend mode="normal" in="SourceGraphic" in2="effect1_dropShadow_2975_634" result="shape"/>
</filter>
</defs>
</svg>
